<?xml version="1.0" encoding="UTF-8" standalone="no"?>
<svg
   xmlns:dc="http://purl.org/dc/elements/1.1/"
   xmlns:cc="http://creativecommons.org/ns#"
   xmlns:rdf="http://www.w3.org/1999/02/22-rdf-syntax-ns#"
   xmlns:svg="http://www.w3.org/2000/svg"
   xmlns="http://www.w3.org/2000/svg"
   xmlns:sodipodi="http://sodipodi.sourceforge.net/DTD/sodipodi-0.dtd"
   xmlns:inkscape="http://www.inkscape.org/namespaces/inkscape"
   inkscape:version="1.0 (4035a4fb49, 2020-05-01)"
   height="133.8"
   width="133.8"
   sodipodi:docname="PlusBus.svg"
   xml:space="preserve"
   viewBox="0 0 133.80001 133.8"
   y="0px"
   x="0px"
   id="Ebene_1"
   version="1.1"><metadata
   id="metadata74"><rdf:RDF><cc:Work
       rdf:about=""><dc:format>image/svg+xml</dc:format><dc:type
         rdf:resource="http://purl.org/dc/dcmitype/StillImage" /><dc:title></dc:title></cc:Work></rdf:RDF></metadata><defs
   id="defs72" /><sodipodi:namedview
   inkscape:current-layer="Ebene_1"
   inkscape:window-maximized="1"
   inkscape:window-y="-9"
   inkscape:window-x="-9"
   inkscape:cy="40.223803"
   inkscape:cx="102.7"
   inkscape:zoom="5.553719"
   height="133.8mm"
   units="mm"
   showgrid="false"
   id="namedview70"
   inkscape:window-height="1361"
   inkscape:window-width="2560"
   inkscape:pageshadow="2"
   inkscape:pageopacity="0"
   guidetolerance="10"
   gridtolerance="10"
   objecttolerance="10"
   borderopacity="1"
   bordercolor="#666666"
   pagecolor="#ffffff" />
<style
   id="style43"
   type="text/css">
	.st0{fill:none;}
	.st1{fill:#A31977;}
	.st2{fill:#FFFFFF;}
</style>
<g
   transform="translate(-35.8,-24)"
   id="g67">
	<rect
   id="rect45"
   height="0.1"
   width="9.3000002"
   class="st0"
   y="42"
   x="60.700001" />
	<rect
   id="rect47"
   height="9.3000002"
   width="0.1"
   class="st0"
   y="60.700001"
   x="88.599998" />
	<polygon
   id="polygon49"
   points="70,88.7 70,88.6 60.7,88.6 60.7,88.7 64.5,88.7 "
   class="st0" />
	<rect
   id="rect51"
   height="9.3000002"
   width="0.1"
   class="st0"
   y="60.700001"
   x="42" />
	<path
   id="path53"
   d="m 89.1,96.5 c -1.3,-0.2 -2.6,-0.2 -3.9,-0.2 v 8.1 c 1.2,0 2.4,0.1 3.5,0 1.3,-0.1 2.4,-0.9 2.9,-2.2 0.3,-0.9 0.3,-1.8 0.2,-2.7 -0.3,-1.5 -1.2,-2.8 -2.7,-3 z"
   class="st1" />
	<path
   id="path55"
   d="m 38.9,76.2 h 15.6 v 15.6 c 0,1.7 1.4,3.1 3.1,3.1 h 7.2 c 0.7,28.3 23.9,51.1 52.4,51.1 29,0 52.4,-23.5 52.4,-52.4 0,-29 -23.5,-52.4 -52.4,-52.4 -13.4,0 -25.6,5.1 -34.9,13.4 h -6 V 39.8 c 0,-1.7 -1.4,-3.9 -3.1,-3.9 H 57.6 c -1.7,0 -3.1,1.4 -3.1,3.1 V 54.6 H 38.9 c -1.7,0 -3.1,1.4 -3.1,3.1 v 15.5 c 0,1.6 1.4,3 3.1,3 z m 98.7,8.5 c 0.1,-1.8 0.8,-3.4 1.9,-4.8 1.6,-2 3.8,-3.1 6.3,-3.7 2.1,-0.5 4.2,-0.6 6.4,-0.4 2.1,0.1 4.2,0.4 6.2,1.1 0.4,0.1 0.5,0.3 0.4,0.8 -0.1,0.6 -0.1,1.3 -0.1,1.9 -0.1,1.4 -0.2,2.9 -0.2,4.3 -0.9,-0.3 -1.9,-0.7 -2.8,-1 -1.5,-0.5 -3,-0.7 -4.6,-0.7 -0.8,0 -1.5,0.2 -2.2,0.4 -1.2,0.4 -1.9,1.3 -2,2.6 -0.1,1.2 0.3,2.2 1.4,2.8 1.4,0.8 2.9,1.5 4.3,2.2 1.4,0.7 2.8,1.3 4.1,2 2.4,1.4 3.7,3.5 4.1,6.2 0.3,2.5 0,4.8 -1.1,7.1 -1.3,2.6 -3.5,4.2 -6.2,5.1 -1.7,0.6 -3.4,0.8 -5.2,0.9 -3.4,0.1 -6.6,-0.4 -9.8,-1.2 -0.1,0 -0.2,-0.1 -0.3,-0.1 0.2,-2.5 0.4,-5 0.5,-7.5 0.9,0.4 1.9,0.8 2.8,1.1 1.9,0.7 3.9,1 6,0.9 1.2,-0.1 2.4,-0.4 3.2,-1.5 1,-1.4 1,-3.8 -0.9,-4.9 -1.2,-0.7 -2.5,-1.2 -3.8,-1.7 -1.7,-0.7 -3.3,-1.4 -4.8,-2.4 -1.9,-1.4 -3.1,-3.4 -3.4,-5.7 -0.2,-1.3 -0.3,-2.6 -0.2,-3.8 z m -31.7,-8.5 c 3,0 5.9,0 8.9,0 0.1,0 0.1,0 0.3,0 v 0.5 c 0,7.3 0,14.6 0,21.9 0,1.3 0.2,2.5 0.6,3.7 0.7,1.6 1.7,2.3 3.5,2.3 0.8,0 1.5,-0.2 2.1,-0.6 0.9,-0.6 1.3,-1.5 1.5,-2.5 0.2,-1.1 0.4,-2.2 0.4,-3.3 0,-7.1 0,-14.3 0,-21.4 0,-0.6 0,-0.6 0.6,-0.6 2.7,0 5.4,0 8.2,0 0.4,0 0.5,0.1 0.5,0.5 0,7.1 0,14.2 0,21.4 0,2.4 -0.3,4.7 -1.3,6.8 -1.4,3.2 -4,5.1 -7.4,6.1 -2,0.5 -4,0.6 -6.1,0.5 -2.6,-0.2 -5.1,-0.9 -7.2,-2.5 -1.8,-1.4 -2.9,-3.2 -3.6,-5.3 -0.6,-1.6 -0.8,-3.4 -0.8,-5.1 0,-7.3 0,-14.5 0,-21.8 V 76.2 Z M 94,76.8 c 0.5,0.1 1,0.3 1.5,0.5 2.5,1.1 4.2,2.9 4.6,5.6 0.4,2.6 0.1,5.1 -1.6,7.2 -0.9,1.2 -2.2,1.9 -3.7,2.4 -0.4,0.1 -0.7,0.2 -1.2,0.4 0.3,0.1 0.6,0.1 0.8,0.2 1.6,0.5 3.2,1.1 4.3,2.4 1,1.1 1.6,2.3 1.8,3.7 0.4,2.1 0.2,4.2 -0.6,6.1 -1.1,2.8 -3.3,4.3 -6.1,5.1 -1.4,0.4 -2.7,0.5 -4.1,0.5 -4.3,0 -8.7,0 -13,0 h -0.5 v -16 -18.7 h 0.5 c 4.1,0 8.3,0 12.4,0 1.7,0.1 3.3,0.2 4.9,0.6 z M 42,60.7 v 0 l 0.1,-0.1 H 55 c 3.1,0 5.6,-2.5 5.6,-5.6 V 42.1 h 0.1 V 42 H 70 v 0.1 h 0.1 V 55 c 0,3.1 2.5,5.6 5.6,5.6 h 12.9 v 0.1 h 0.1 V 70 h -0.1 v 0.1 H 75.7 c -3.1,0 -5.6,2.5 -5.6,5.6 V 88.6 H 70 v 0.1 H 64.5 60.7 V 88.6 H 60.6 V 75.7 c 0,-3.1 -2.5,-5.6 -5.6,-5.6 H 42.1 V 70 H 42 Z"
   class="st1" />
	<path
   id="path57"
   d="m 85.4,90.1 c 1,0 2,0 2.9,-0.2 1.4,-0.2 2.4,-1 2.7,-2.4 0.1,-0.6 0.2,-1.1 0.1,-1.7 C 91,84.2 90.2,83 88.6,82.7 87.4,82.5 86.2,82.5 85,82.4 c 0,0 0,0.1 0,0.1 0,0 0,0 0,0.1 0,2.4 0,4.8 0,7.2 0.1,0.3 0.2,0.3 0.4,0.3 z"
   class="st1" />
	<path
   id="path59"
   d="m 60.6,75.7 v 12.9 h 0.1 9.3 0.1 V 75.7 c 0,-3.1 2.5,-5.6 5.6,-5.6 H 88.6 V 70 60.7 60.6 H 75.7 c -3.1,0 -5.6,-2.5 -5.6,-5.6 V 42.1 H 70 60.7 60.6 V 55 c 0,3.1 -2.5,5.6 -5.6,5.6 H 42.1 v 0.1 9.3 0.1 H 55 c 3.1,0 5.6,2.5 5.6,5.6 z"
   class="st2" />
	<path
   id="path61"
   d="m 76.2,76.2 v 18.7 16 h 0.5 c 4.3,0 8.7,0 13,0 1.4,0 2.8,-0.1 4.1,-0.5 2.8,-0.8 5,-2.3 6.1,-5.1 0.8,-2 1,-4 0.6,-6.1 -0.3,-1.4 -0.9,-2.7 -1.8,-3.7 C 97.5,94.2 96,93.6 94.4,93.1 94.2,93 94,93 93.6,92.9 c 0.5,-0.2 0.8,-0.3 1.2,-0.4 1.4,-0.5 2.7,-1.2 3.7,-2.4 1.7,-2.1 2,-4.6 1.6,-7.2 -0.4,-2.7 -2.1,-4.6 -4.6,-5.6 -0.5,-0.2 -1,-0.4 -1.5,-0.5 -1.6,-0.4 -3.3,-0.5 -5,-0.6 -4.1,0 -8.3,0 -12.4,0 z m 15.4,25.9 c -0.5,1.3 -1.5,2.1 -2.9,2.2 -1.2,0.1 -2.3,0 -3.5,0 v -8.1 c 1.3,0.1 2.6,0.1 3.9,0.2 1.6,0.2 2.4,1.5 2.7,2.9 0.1,1 0.1,1.9 -0.2,2.8 z M 85.1,82.7 c 0,-0.1 0.1,-0.1 0,0 0,-0.1 0,-0.2 0.1,-0.2 1.2,0.1 2.4,0 3.6,0.3 1.6,0.3 2.4,1.5 2.5,3.1 0,0.6 0,1.2 -0.1,1.7 -0.3,1.4 -1.3,2.2 -2.7,2.4 -1,0.1 -2,0.1 -2.9,0.2 -0.2,0 -0.3,0 -0.3,-0.3 -0.2,-2.5 -0.2,-4.9 -0.2,-7.2 z"
   class="st2" />
	<path
   id="path63"
   d="m 131.8,76.2 c -2.7,0 -5.4,0 -8.2,0 -0.6,0 -0.6,0 -0.6,0.6 0,7.1 0,14.3 0,21.4 0,1.1 -0.1,2.2 -0.4,3.3 -0.2,1 -0.6,1.9 -1.5,2.5 -0.6,0.4 -1.4,0.6 -2.1,0.6 -1.7,0 -2.8,-0.6 -3.5,-2.3 -0.5,-1.2 -0.6,-2.4 -0.6,-3.7 0,-7.3 0,-14.6 0,-21.9 v -0.5 c -0.1,0 -0.2,0 -0.3,0 -2.9,0 -5.9,0 -8.9,0 v 0.5 c 0,7.3 0,14.5 0,21.8 0,1.7 0.3,3.4 0.8,5.1 0.7,2.1 1.8,3.9 3.6,5.3 2.1,1.6 4.6,2.3 7.2,2.5 2,0.1 4.1,0.1 6.1,-0.5 3.4,-0.9 5.9,-2.8 7.4,-6.1 1,-2.2 1.3,-4.5 1.3,-6.8 0,-7.1 0,-14.2 0,-21.4 0.2,-0.3 0.1,-0.4 -0.3,-0.4 z"
   class="st2" />
	<path
   id="path65"
   d="m 141.1,94.1 c 1.4,1.1 3.1,1.8 4.8,2.4 1.3,0.5 2.6,1.1 3.8,1.7 1.9,1 1.9,3.5 0.9,4.9 -0.8,1.1 -1.9,1.4 -3.2,1.5 -2.1,0.2 -4.1,-0.2 -6,-0.9 -0.9,-0.3 -1.9,-0.7 -2.8,-1.1 -0.2,2.5 -0.4,5 -0.5,7.5 0.1,0 0.2,0.1 0.3,0.1 3.2,0.8 6.5,1.3 9.8,1.2 1.8,-0.1 3.5,-0.3 5.2,-0.9 2.7,-0.9 4.9,-2.5 6.2,-5.1 1.1,-2.2 1.4,-4.6 1.1,-7.1 -0.3,-2.7 -1.7,-4.8 -4.1,-6.2 -1.3,-0.8 -2.7,-1.4 -4.1,-2 -1.4,-0.7 -2.9,-1.4 -4.3,-2.2 -1,-0.6 -1.4,-1.6 -1.4,-2.8 0.1,-1.3 0.8,-2.2 2,-2.6 0.7,-0.2 1.5,-0.4 2.2,-0.4 1.6,-0.1 3.1,0.2 4.6,0.7 0.9,0.3 1.9,0.6 2.8,1 0.1,-1.4 0.2,-2.8 0.2,-4.3 0,-0.6 0,-1.3 0.1,-1.9 0.1,-0.4 0,-0.6 -0.4,-0.8 -2,-0.7 -4.1,-1 -6.2,-1.1 -2.2,-0.1 -4.3,-0.1 -6.4,0.4 -2.5,0.6 -4.7,1.7 -6.3,3.7 -1.1,1.4 -1.8,3.1 -1.9,4.8 -0.1,1.2 0,2.4 0.1,3.6 0.4,2.5 1.5,4.4 3.5,5.9 z"
   class="st2" />
</g>
</svg>
