<?xml version="1.0" encoding="UTF-8" standalone="no"?>
<!-- Created with Inkscape (http://www.inkscape.org/) -->

<svg
   xmlns:dc="http://purl.org/dc/elements/1.1/"
   xmlns:cc="http://creativecommons.org/ns#"
   xmlns:rdf="http://www.w3.org/1999/02/22-rdf-syntax-ns#"
   xmlns:svg="http://www.w3.org/2000/svg"
   xmlns="http://www.w3.org/2000/svg"
   xmlns:sodipodi="http://sodipodi.sourceforge.net/DTD/sodipodi-0.dtd"
   xmlns:inkscape="http://www.inkscape.org/namespaces/inkscape"
   style="height:100%;width:100%"
   width="205.675mm"
   height="78.089996mm"
   viewBox="0 0 205.675 78.089996"
   version="1.1"
   id="svg8"
   inkscape:version="0.92.2 (5c3e80d, 2017-08-06)"
   sodipodi:docname="Tram1.svg">
  <defs
     id="defs2" />
  <style>
     @font-face {
        font-family: 'Glass Gauge';
        src: url("https://db.onlinewebfonts.com/t/d0fa13ed31b741003681cea430fdf0f5.ttf");
     }
  </style>
  <sodipodi:namedview
     id="base"
     pagecolor="#ffffff"
     bordercolor="#666666"
     borderopacity="1.0"
     inkscape:pageopacity="0.0"
     inkscape:pageshadow="2"
     inkscape:zoom="0.70710678"
     inkscape:cx="365.17807"
     inkscape:cy="-18.734015"
     inkscape:document-units="mm"
     inkscape:current-layer="g832"
     showgrid="false"
     showguides="false"
     inkscape:window-width="1366"
     inkscape:window-height="745"
     inkscape:window-x="-8"
     inkscape:window-y="1016"
     inkscape:window-maximized="1"
     inkscape:lockguides="false" />
  <metadata
     id="metadata5">
    <rdf:RDF>
      <cc:Work
         rdf:about="">
        <dc:format>image/svg+xml</dc:format>
        <dc:type
           rdf:resource="http://purl.org/dc/dcmitype/StillImage" />
        <dc:title />
      </cc:Work>
    </rdf:RDF>
  </metadata>
  <g
     id="g832"
     inkscape:groupmode="layer"
     inkscape:label="Done"
     style="display:inline;opacity:1"
     transform="translate(0,-218.91)">
    <path
       style="fill:#646464;fill-opacity:1;stroke:none;stroke-width:0.28496495px;stroke-linecap:butt;stroke-linejoin:miter;stroke-opacity:1"
       d="m 0.0062025,245.60791 v -1.40317 h 1.1626223 v -0.30903 h 2.2283597 v 1.70385 H 2.1182999 v -0.61807 h -0.668508 v 0.60136 z"
       id="path2027"
       inkscape:connector-curvature="0" />
    <rect
       style="display:inline;opacity:1;fill:#000000;fill-opacity:1;stroke:none;stroke-width:0.44404873;stroke-linejoin:miter;stroke-miterlimit:4;stroke-dasharray:none;stroke-opacity:1"
       id="rect1991-1"
       width="2.622211"
       height="4.157742"
       x="1.3845104"
       y="245.27242" />
    <path
       style="fill:#000000;fill-opacity:1;stroke:none;stroke-width:0.26458332px;stroke-linecap:butt;stroke-linejoin:miter;stroke-opacity:1"
       d="m 3.6697757,245.42416 v -1.65373 H 1.849002 v 0.52619 h 1.010613 v 1.13589 z"
       id="path2029"
       inkscape:connector-curvature="0" />
    <path
       style="fill:#000000;fill-opacity:1;stroke:none;stroke-width:0.26458332px;stroke-linecap:butt;stroke-linejoin:miter;stroke-opacity:1"
       d="m 17.801652,244.97314 v 1.22059 h 9.001757 v -0.77958 h -7.583147 v -0.47246 z"
       id="path2224"
       inkscape:connector-curvature="0" />
    <path
       style="fill:#646464;fill-opacity:1;stroke:none;stroke-width:0.26458332px;stroke-linecap:butt;stroke-linejoin:miter;stroke-opacity:1"
       d="m 17.805828,245.69143 h -1.966937 v -0.75169 h -0.634766 v 0.27562 h 0.200452 v 0.3842 H 14.06823 v -0.62642 h -0.618061 v 0.65982 h -0.935443 v -1.63702 h 1.84583 v 0.29233 h 1.419869 v -0.16705 h 1.578561 v 0.85192 h 0.442665 z"
       id="path2023"
       inkscape:connector-curvature="0"
       sodipodi:nodetypes="ccccccccccccccccccccc" />
    <rect
       style="display:inline;opacity:1;fill:#000000;fill-opacity:1;stroke:none;stroke-width:0.44404873;stroke-linejoin:miter;stroke-miterlimit:4;stroke-dasharray:none;stroke-opacity:1"
       id="rect1991-1-4"
       width="2.622211"
       height="4.157742"
       x="11.944219"
       y="245.27242" />
    <path
       style="fill:none;stroke:#3c3c3c;stroke-width:0.47143999;stroke-linecap:butt;stroke-linejoin:miter;stroke-miterlimit:4;stroke-dasharray:none;stroke-opacity:1"
       d="M 15.540727,247.68774 H 0"
       id="path2031"
       inkscape:connector-curvature="0" />
    <path
       style="fill:#000000;fill-opacity:1;stroke:none;stroke-width:0.26458332px;stroke-linecap:butt;stroke-linejoin:miter;stroke-opacity:1"
       d="m 12.205695,245.30723 v -1.50339 h 1.687139 v 0.48443 h -0.935443 v 1.04402 z"
       id="path2025"
       inkscape:connector-curvature="0" />
    <rect
       style="display:inline;opacity:1;fill:#25656b;fill-opacity:0.37383178;stroke:none;stroke-width:0.46499997;stroke-linejoin:miter;stroke-miterlimit:4;stroke-dasharray:none;stroke-opacity:1"
       id="rect1927-04"
       width="9.5673771"
       height="33.534386"
       x="89.854561"
       y="258.95026"
       ry="0" />
    <rect
       style="display:inline;opacity:1;fill:#25656b;fill-opacity:0.37383178;stroke:none;stroke-width:0.46499997;stroke-linejoin:miter;stroke-miterlimit:4;stroke-dasharray:none;stroke-opacity:1"
       id="rect1927-04-7"
       width="9.5673771"
       height="33.534386"
       x="100.80712"
       y="258.95026"
       ry="0" />
    <rect
       style="display:inline;opacity:1;fill:#25656b;fill-opacity:0.37383178;stroke:none;stroke-width:0.46499997;stroke-linejoin:miter;stroke-miterlimit:4;stroke-dasharray:none;stroke-opacity:1"
       id="rect1927-0"
       width="49.044159"
       height="17.167715"
       x="115.64179"
       y="259.48923"
       ry="0" />
    <rect
       style="opacity:1;fill:#25656b;fill-opacity:0.37383178;stroke:none;stroke-width:0.46499997;stroke-linejoin:miter;stroke-miterlimit:4;stroke-dasharray:none;stroke-opacity:1"
       id="rect1927"
       width="49.044159"
       height="17.167713"
       x="21.317921"
       y="259.48923"
       ry="0" />
    <rect
       style="opacity:1;fill:#fdc400;fill-opacity:1;stroke:#fdc400;stroke-width:0.46499997;stroke-linejoin:miter;stroke-miterlimit:4;stroke-dasharray:none;stroke-opacity:1"
       id="rect1910"
       width="1.5000887"
       height="0.40160334"
       x="153.94514"
       y="261.38364"
       ry="0.14174144" />
    <rect
       style="display:inline;opacity:1;fill:#fdc400;fill-opacity:1;stroke:#fdc400;stroke-width:0.46499997;stroke-linejoin:miter;stroke-miterlimit:4;stroke-dasharray:none;stroke-opacity:1"
       id="rect1910-0"
       width="1.5000887"
       height="0.40160334"
       x="30.449585"
       y="261.38364"
       ry="0.14174144" />
    <rect
       style="display:inline;opacity:1;fill:none;fill-opacity:1;stroke:#a2a2a2;stroke-width:0.465;stroke-linejoin:miter;stroke-miterlimit:4;stroke-dasharray:none;stroke-opacity:1"
       id="rect1850-1"
       width="14.717453"
       height="3.874258"
       x="121.95684"
       y="257.41492"
       ry="1.4174091" />
    <rect
       style="display:inline;opacity:1;fill:none;fill-opacity:1;stroke:#a2a2a2;stroke-width:0.465;stroke-linejoin:miter;stroke-miterlimit:4;stroke-dasharray:none;stroke-opacity:1"
       id="rect1850-4"
       width="14.717453"
       height="3.874258"
       x="23.331762"
       y="257.41492"
       ry="1.4174091" />
    <rect
       style="display:inline;opacity:1;fill:none;fill-opacity:1;stroke:#a2a2a2;stroke-width:0.465;stroke-linejoin:miter;stroke-miterlimit:4;stroke-dasharray:none;stroke-opacity:1"
       id="rect1850-9"
       width="14.717453"
       height="3.874258"
       x="49.460953"
       y="257.41492"
       ry="1.4174091" />
    <rect
       style="display:inline;opacity:1;fill:none;fill-opacity:1;stroke:#a2a2a2;stroke-width:0.465;stroke-linejoin:miter;stroke-miterlimit:4;stroke-dasharray:none;stroke-opacity:1"
       id="rect1850"
       width="14.717453"
       height="3.874258"
       x="147.88573"
       y="257.41492"
       ry="1.4174091" />
    <path
       style="fill:#000000;fill-opacity:1;stroke:#000000;stroke-width:0.26458332px;stroke-linecap:butt;stroke-linejoin:miter;stroke-opacity:1"
       d="m 14.625489,251.887 0.767764,1.26385 v 39.31275 l -0.706963,1.38646 -0.818513,-1.40317 v -39.31375 z"
       id="path1685"
       inkscape:connector-curvature="0" />
    <path
       style="fill:#646464;fill-opacity:1;stroke:#000000;stroke-width:0.065;stroke-linecap:butt;stroke-linejoin:miter;stroke-miterlimit:4;stroke-dasharray:none;stroke-opacity:1"
       d="m 45.742054,246.25838 22.012714,-9.31325 -0.900808,-0.50791 -22.884952,9.82216 z"
       id="path1477"
       inkscape:connector-curvature="0"
       sodipodi:nodetypes="ccccc" />
    <path
       style="fill:#646464;fill-opacity:1;stroke:#000000;stroke-width:0.065;stroke-linecap:butt;stroke-linejoin:miter;stroke-miterlimit:4;stroke-dasharray:none;stroke-opacity:1"
       d="m 66.798013,236.94513 h 0.956755 l 0.366162,0.99218 h 0.543343 l 1.169363,-0.94494 v -0.76776 l -0.590587,-1.46466 h -2.82301 z"
       id="path1848"
       inkscape:connector-curvature="0" />
    <rect
       style="opacity:1;fill:#646464;fill-opacity:1;stroke:none;stroke-width:0.46499997;stroke-miterlimit:4;stroke-dasharray:none;stroke-opacity:1"
       id="rect1389"
       width="28.535067"
       height="2.7061005"
       x="86.965996"
       y="244.12123"
       ry="0" />
    <rect
       style="display:inline;opacity:1;fill:#646464;fill-opacity:1;stroke:none;stroke-width:0.24241002;stroke-miterlimit:4;stroke-dasharray:none;stroke-opacity:1"
       id="rect1389-3"
       width="7.7548647"
       height="2.7061005"
       x="122.90184"
       y="245.13141"
       ry="0" />
    <rect
       style="display:inline;opacity:1;fill:#646464;fill-opacity:1;stroke:none;stroke-width:0.24241002;stroke-miterlimit:4;stroke-dasharray:none;stroke-opacity:1"
       id="rect1389-3-4"
       width="7.7548647"
       height="2.7061005"
       x="132.87337"
       y="245.13141"
       ry="0" />
    <rect
       style="display:inline;opacity:1;fill:#646464;fill-opacity:1;stroke:none;stroke-width:0.3732506;stroke-miterlimit:4;stroke-dasharray:none;stroke-opacity:1"
       id="rect1389-3-8"
       width="18.385445"
       height="2.7061005"
       x="145.96704"
       y="244.82431"
       ry="0" />
    <rect
       style="display:inline;opacity:1;fill:#646464;fill-opacity:1;stroke:none;stroke-width:0.23723659;stroke-miterlimit:4;stroke-dasharray:none;stroke-opacity:1"
       id="rect1389-3-8-8"
       width="7.4273939"
       height="2.7061005"
       x="168.91928"
       y="245.00606"
       ry="0" />
    <rect
       style="display:inline;opacity:1;fill:#000000;fill-opacity:1;stroke:#040505;stroke-width:0.2;stroke-miterlimit:4;stroke-dasharray:none;stroke-opacity:1"
       id="rect1132-7"
       width="34.808144"
       height="8.0224895"
       x="124.72077"
       y="287.23563" />
    <circle
       style="display:inline;opacity:1;fill:#292e30;fill-opacity:1;stroke:#292d2f;stroke-width:1.34356868;stroke-miterlimit:4;stroke-dasharray:none;stroke-opacity:1"
       id="path1039-3"
       cx="129.18727"
       cy="292.51944"
       r="3.8087773" />
    <rect
       style="opacity:1;fill:#000000;fill-opacity:1;stroke:#040505;stroke-width:0.2;stroke-miterlimit:4;stroke-dasharray:none;stroke-opacity:1"
       id="rect1132"
       width="34.808144"
       height="8.0224895"
       x="25.254412"
       y="287.23563" />
    <circle
       style="opacity:1;fill:#292e30;fill-opacity:1;stroke:#292d2f;stroke-width:1.34356868;stroke-miterlimit:4;stroke-dasharray:none;stroke-opacity:1"
       id="path1039"
       cx="29.720919"
       cy="292.51944"
       r="3.8087773" />
    <path
       style="display:inline;opacity:1;fill:none;stroke:#3c3c3c;stroke-width:0.47118908;stroke-linecap:butt;stroke-linejoin:miter;stroke-miterlimit:4;stroke-dasharray:none;stroke-opacity:1"
       d="M 15.530667,246.69369 H 0.0064776"
       id="path2031-6"
       inkscape:connector-curvature="0" />
    <path
       style="display:inline;opacity:1;fill:none;stroke:#3c3c3c;stroke-width:0.46942911;stroke-linecap:butt;stroke-linejoin:miter;stroke-miterlimit:4;stroke-dasharray:none;stroke-opacity:1"
       d="M 15.414639,245.81668 H 0.0062025"
       id="path2031-6-5"
       inkscape:connector-curvature="0" />
    <path
       style="fill:none;stroke:#646464;stroke-width:0.26766777px;stroke-linecap:butt;stroke-linejoin:miter;stroke-opacity:1"
       d="M 15.522124,248.24898 H 0.0062025"
       id="path2654"
       inkscape:connector-curvature="0"
       sodipodi:nodetypes="cc" />
    <path
       style="display:inline;opacity:1;fill:none;stroke:#646464;stroke-width:0.26759645px;stroke-linecap:butt;stroke-linejoin:miter;stroke-opacity:1"
       d="M 15.513856,248.77814 H 0.0062025"
       id="path2654-5"
       inkscape:connector-curvature="0"
       sodipodi:nodetypes="cc" />
    <path
       style="fill:#fdc400;fill-opacity:1;stroke:#fdc400;stroke-width:0.26499999;stroke-linecap:butt;stroke-linejoin:miter;stroke-miterlimit:4;stroke-dasharray:none;stroke-opacity:1"
       d="m 178.22178,243.62869 c -1.62708,1.39012 -4.55363,2.03148 -5.59604,2.05724 -1.04243,0.0258 -157.213144,0.13075 -157.213144,0.13075 v 47.63946 h 7.465177 c 0,0 2.307166,-2.90054 2.71663,-3.42563 0.409463,-0.52508 1.205547,-1.70643 3.077849,-1.67638 1.872301,0.0301 1.208929,-0.22468 1.523937,-1.01027 h 24.762314 c 0.136126,0.36273 0.157234,0.86511 0.968415,0.93844 0.81118,0.0733 2.644462,0.29386 3.401859,1.33325 0.757396,1.03939 2.839619,3.64164 2.839622,3.64164 h 60.376671 c 0,0 1.85942,-1.99829 2.71301,-3.30213 0.85361,-1.30383 2.64595,-1.63127 3.49591,-1.55907 0.84996,0.0722 0.88733,-0.60917 1.0201,-0.98754 h 24.80468 c 0.15592,0.52799 0.23997,0.80633 1.15756,0.87385 0.91759,0.0675 1.74219,0.037 3.09438,1.29966 l 46.17238,-0.17725 c 0.3373,-0.17706 0.5711,-0.34097 0.53175,-1.05162 l -1.65365,-9.02373 c 0,0 -15.40329,-0.19585 -15.66829,-0.18914 -0.265,0.007 -1.21849,-0.53063 -1.24024,-0.94516 -0.0218,-0.41453 -2.84582,-33.67288 -2.84582,-33.67288 z m -88.081965,15.3169 h 19.992575 c 0.98483,0 1.77767,0.79284 1.77767,1.77767 v 30.01832 c 0,0.98483 -0.79284,1.77767 -1.77767,1.77767 H 90.139814 c -0.984826,0 -1.777666,-0.79284 -1.777666,-1.77767 v -30.01832 c 0,-0.98483 0.79284,-1.77767 1.777667,-1.77767 z m -68.053725,0.54364 h 47.507694 c 0.42558,0 0.76843,0.34285 0.768427,0.76842 v 15.63109 c 0,0.42558 -0.342847,0.76843 -0.768427,0.76843 H 22.086089 c -0.425579,0 -0.768428,-0.34285 -0.768428,-0.76843 v -15.63109 c 0,-0.42557 0.342849,-0.76842 0.768429,-0.76842 z m 94.32396,0 h 47.50769 c 0.42558,0 0.76843,0.34285 0.76843,0.76842 v 15.63109 c 0,0.42558 -0.34285,0.76843 -0.76843,0.76843 h -47.50769 c -0.42558,0 -0.76843,-0.34285 -0.76843,-0.76843 v -15.63109 c 0,-0.42557 0.34285,-0.76842 0.76843,-0.76842 z"
       id="path830"
       inkscape:connector-curvature="0" />
    <path
       style="fill:#000000;fill-opacity:1;stroke:#000000;stroke-width:0.26458332px;stroke-linecap:butt;stroke-linejoin:miter;stroke-opacity:1"
       d="m 89.854562,258.95024 c -0.866772,-0.0182 -1.400665,0.34563 -1.512051,1.2051 v 30.92317 c 0.126659,0.79357 0.637006,1.25904 1.476394,1.40612 h 9.603033 v -33.53439 z m 1.42937,4.1553 h 6.992337 v 14.17381 h -7.017142 z m -0.03566,16.11375 h 6.992857 v 0.82682 c 0,0 -0.543104,-0.003 -0.903823,0 -0.36072,0.003 -0.708483,0.23901 -0.708483,0.63769 0,0.39867 -0.0453,2.8241 -0.04444,3.10988 7.94e-4,0.28579 0.391266,0.59667 0.646472,0.58808 0.255204,-0.009 1.033534,0.0114 1.033534,0.0114 v 1.77147 h -6.992345 z m -0.05168,8.84183 h 7.145817 v 2.41174 H 91.17076 Z"
       id="path834"
       inkscape:connector-curvature="0" />
    <path
       style="display:inline;opacity:1;fill:#000000;fill-opacity:1;stroke:#000000;stroke-width:0.26458332px;stroke-linecap:butt;stroke-linejoin:miter;stroke-opacity:1"
       d="m 100.80712,258.95024 v 33.53387 h 9.60251 c 0.8394,-0.14707 1.35026,-0.61254 1.47692,-1.40612 v -30.92317 c -0.11139,-0.85947 -0.64529,-1.22275 -1.51205,-1.20458 z m 0.97978,4.09329 h 6.99234 v 14.17381 h -7.01714 z m -0.0636,16.15147 h 7.06934 v 7.01249 h -7.09466 z m -0.0465,8.77879 h 7.14582 v 2.41174 h -7.17166 z"
       id="path834-3"
       inkscape:connector-curvature="0" />
    <circle
       style="opacity:1;fill:#e05f43;fill-opacity:1;stroke:#fdc400;stroke-width:0.26499999;stroke-miterlimit:4;stroke-dasharray:none;stroke-opacity:1"
       id="path851"
       cx="97.694359"
       cy="281.12552"
       r="0.73916727" />
    <circle
       style="display:inline;opacity:1;fill:#acacd4;fill-opacity:1;stroke:#6bb7dd;stroke-width:0.26499999;stroke-miterlimit:4;stroke-dasharray:none;stroke-opacity:1"
       id="path851-8"
       cx="97.690186"
       cy="283.31799"
       r="0.73916727" />
    <rect
       style="opacity:1;fill:#404040;fill-opacity:1;stroke:#404040;stroke-width:0.26499999;stroke-miterlimit:4;stroke-dasharray:none;stroke-opacity:1"
       id="rect981"
       width="0.69259465"
       height="33.5312"
       x="99.421928"
       y="258.95026"
       ry="0" />
    <rect
       style="display:inline;opacity:1;fill:#404040;fill-opacity:1;stroke:#404040;stroke-width:0.26499999;stroke-miterlimit:4;stroke-dasharray:none;stroke-opacity:1"
       id="rect981-3"
       width="0.69259465"
       height="33.5312"
       x="100.11453"
       y="258.95026"
       ry="0" />
    <rect
       style="opacity:1;fill:none;fill-opacity:1;stroke:#000000;stroke-width:1;stroke-miterlimit:4;stroke-dasharray:none;stroke-opacity:1"
       id="rect998"
       width="49.044159"
       height="17.167715"
       x="21.317921"
       y="259.48923"
       ry="0.76819301" />
    <rect
       style="display:inline;opacity:1;fill:none;fill-opacity:1;stroke:#000000;stroke-width:1;stroke-miterlimit:4;stroke-dasharray:none;stroke-opacity:1"
       id="rect998-3"
       width="49.044159"
       height="17.167717"
       x="115.64179"
       y="259.48923"
       ry="0.76819301" />
    <rect
       style="opacity:1;fill:#000000;fill-opacity:1;stroke:#000000;stroke-width:1;stroke-miterlimit:4;stroke-dasharray:none;stroke-opacity:1"
       id="rect1015"
       width="20.394258"
       height="3.6511562"
       x="35.544109"
       y="259.61191"
       ry="0.023620058" />
    <text
       xml:space="preserve"
       style="font-style:normal;font-variant:normal;font-weight:normal;font-stretch:normal;font-size:4.23333311px;line-height:1.25;font-family:'Glass Gauge';-inkscape-font-specification:'Glass Gauge';letter-spacing:0px;word-spacing:0px;fill:#fe8b00;fill-opacity:1;stroke:none;stroke-width:0.26458332"
       x="37.268631"
       y="262.77744"
       id="text1019"><tspan
         sodipodi:role="line"
         id="tspan1017"
         x="37.268631"
         y="262.77744"
         style="font-style:normal;font-variant:normal;font-weight:normal;font-stretch:normal;font-size:4.23333311px;font-family:'Glass Gauge';-inkscape-font-specification:'Glass Gauge';fill:#fe8b00;fill-opacity:1;stroke-width:0.26458332">11 Bühlau</tspan></text>
    <rect
       style="opacity:1;fill:none;fill-opacity:1;stroke:#000000;stroke-width:1;stroke-miterlimit:4;stroke-dasharray:none;stroke-opacity:1"
       id="rect1037"
       width="17.791321"
       height="3.6583936"
       x="131.1991"
       y="260.15237"
       ry="0" />
    <circle
       style="display:inline;opacity:1;fill:#000000;fill-opacity:1;stroke:#000000;stroke-width:1.34356868;stroke-miterlimit:4;stroke-dasharray:none;stroke-opacity:1"
       id="path1039-1"
       cx="55.505978"
       cy="292.51944"
       r="3.8087773" />
    <circle
       style="opacity:1;fill:none;fill-opacity:1;stroke:#000000;stroke-width:0.30000001;stroke-miterlimit:4;stroke-dasharray:none;stroke-opacity:1"
       id="path1058"
       cy="292.43677"
       cx="29.75635"
       r="2.4332216" />
    <circle
       style="display:inline;opacity:1;fill:none;fill-opacity:1;stroke:#000000;stroke-width:0.2;stroke-miterlimit:4;stroke-dasharray:none;stroke-opacity:1"
       id="path1058-6"
       cy="292.43677"
       cx="29.779976"
       r="1.6300222" />
    <path
       style="fill:#292e30;fill-opacity:1;stroke:#292e30;stroke-width:0.26458332px;stroke-linecap:butt;stroke-linejoin:miter;stroke-opacity:1"
       d="m 46.808746,289.0225 v 3.72507 h -8.38558 v -0.30068 h -2.388722 v -0.90203 l -2.004523,-2.73952 h 2.238383 v 2.70611 h 0.283975 v -2.50565 z"
       id="path1075"
       inkscape:connector-curvature="0" />
    <path
       style="display:inline;fill:#292e30;fill-opacity:1;stroke:#292e30;stroke-width:0.26458332px;stroke-linecap:butt;stroke-linejoin:miter;stroke-opacity:1"
       d="m 47.557293,289.60419 v 3.75614 l 1.334727,1.33472 v 0.81502 h 8.610772 v -4.37035 l -1.169365,-1.16937 h -2.397788 v -0.34254 h -2.480468 v 0.8032 H 49.49442 v -0.85044 z"
       id="path1077"
       inkscape:connector-curvature="0" />
    <circle
       style="display:inline;opacity:1;fill:#292e30;fill-opacity:1;stroke:#212526;stroke-width:0.07368649;stroke-miterlimit:4;stroke-dasharray:none;stroke-opacity:1"
       id="path1039-8"
       cx="51.785275"
       cy="291.04297"
       r="1.4032772" />
    <circle
       style="display:inline;opacity:1;fill:#292e30;fill-opacity:1;stroke:#212526;stroke-width:0.12687112;stroke-miterlimit:4;stroke-dasharray:none;stroke-opacity:1"
       id="path1039-8-1"
       cx="55.529602"
       cy="292.1651"
       r="2.4161193" />
    <circle
       style="display:inline;opacity:1;fill:#000000;fill-opacity:1;stroke:#000000;stroke-width:1.34356868;stroke-miterlimit:4;stroke-dasharray:none;stroke-opacity:1"
       id="path1039-1-7"
       cx="154.97194"
       cy="292.51944"
       r="3.8087773" />
    <circle
       style="display:inline;opacity:1;fill:none;fill-opacity:1;stroke:#000000;stroke-width:0.30000001;stroke-miterlimit:4;stroke-dasharray:none;stroke-opacity:1"
       id="path1058-2"
       cy="292.43677"
       cx="129.2227"
       r="2.4332216" />
    <circle
       style="display:inline;opacity:1;fill:none;fill-opacity:1;stroke:#000000;stroke-width:0.2;stroke-miterlimit:4;stroke-dasharray:none;stroke-opacity:1"
       id="path1058-6-5"
       cy="292.43677"
       cx="129.24631"
       r="1.6300222" />
    <path
       style="display:inline;opacity:1;fill:#292e30;fill-opacity:1;stroke:#292e30;stroke-width:0.26458332px;stroke-linecap:butt;stroke-linejoin:miter;stroke-opacity:1"
       d="m 146.27538,289.0225 v 3.72506 h -8.38563 v -0.30067 h -2.38873 v -0.90204 l -2.00453,-2.73951 h 2.23839 v 2.7061 h 0.28397 v -2.50565 z"
       id="path1075-5"
       inkscape:connector-curvature="0" />
    <path
       style="display:inline;opacity:1;fill:#292e30;fill-opacity:1;stroke:#292e30;stroke-width:0.26458332px;stroke-linecap:butt;stroke-linejoin:miter;stroke-opacity:1"
       d="m 147.02393,289.60418 v 3.75614 l 1.33473,1.33473 v 0.81501 h 8.61083 v -4.37035 l -1.16938,-1.16936 h -2.3978 v -0.34254 h -2.48047 v 0.80319 h -1.96078 v -0.85044 z"
       id="path1077-3"
       inkscape:connector-curvature="0" />
    <circle
       style="display:inline;opacity:1;fill:#292e30;fill-opacity:1;stroke:#212526;stroke-width:0.07368649;stroke-miterlimit:4;stroke-dasharray:none;stroke-opacity:1"
       id="path1039-8-6"
       cx="151.2513"
       cy="291.04297"
       r="1.4032772" />
    <circle
       style="display:inline;opacity:1;fill:#292e30;fill-opacity:1;stroke:#212526;stroke-width:0.12687112;stroke-miterlimit:4;stroke-dasharray:none;stroke-opacity:1"
       id="path1039-8-1-4"
       cx="154.99557"
       cy="292.1651"
       r="2.4161196" />
    <path
       style="fill:#000000;fill-opacity:1;stroke:#000000;stroke-width:0.26458332px;stroke-linecap:butt;stroke-linejoin:miter;stroke-opacity:1"
       d="m 158.83091,289.58177 3.171,4.08454 c 0,0 39.8195,-0.53225 40.31828,-0.52675 0.49878,0.005 1.83366,-1.16325 2.13618,-1.44952 0.30253,-0.28628 0.89691,-1.89344 0.36798,-2.00375 -0.52893,-0.1103 -45.99344,-0.10452 -45.99344,-0.10452 z"
       id="path1173"
       inkscape:connector-curvature="0"
       sodipodi:nodetypes="cczzzc" />
    <path
       style="fill:#646464;fill-opacity:1;stroke:#000000;stroke-width:0.465;stroke-linecap:butt;stroke-linejoin:miter;stroke-miterlimit:4;stroke-dasharray:none;stroke-opacity:1"
       d="m 30.729382,271.91033 h 0.902036 l 1.176337,4.39016 h -3.347903 z"
       id="path1177"
       inkscape:connector-curvature="0" />
    <rect
       style="opacity:1;fill:#818181;fill-opacity:1;stroke:none;stroke-width:0.35151365;stroke-miterlimit:4;stroke-dasharray:none;stroke-opacity:1"
       id="rect1179"
       width="0.44548896"
       height="3.6143973"
       x="30.960423"
       y="268.06998" />
    <path
       style="display:inline;opacity:1;fill:#646464;fill-opacity:1;stroke:#000000;stroke-width:0.465;stroke-linecap:butt;stroke-linejoin:miter;stroke-miterlimit:4;stroke-dasharray:none;stroke-opacity:1"
       d="m 55.77313,271.91033 h 0.902037 l 1.176336,4.39016 h -3.347901 z"
       id="path1177-9"
       inkscape:connector-curvature="0" />
    <rect
       style="display:inline;opacity:1;fill:#818181;fill-opacity:1;stroke:none;stroke-width:0.35151365;stroke-miterlimit:4;stroke-dasharray:none;stroke-opacity:1"
       id="rect1179-2"
       width="0.44548899"
       height="3.6143973"
       x="56.004177"
       y="268.06998" />
    <path
       style="display:inline;opacity:1;fill:#646464;fill-opacity:1;stroke:#000000;stroke-width:0.465;stroke-linecap:butt;stroke-linejoin:miter;stroke-miterlimit:4;stroke-dasharray:none;stroke-opacity:1"
       d="m 129.24494,272.1428 h 0.90204 l 1.17634,4.39016 h -3.34792 z"
       id="path1177-9-3"
       inkscape:connector-curvature="0" />
    <rect
       style="display:inline;opacity:1;fill:#818181;fill-opacity:1;stroke:none;stroke-width:0.35151365;stroke-miterlimit:4;stroke-dasharray:none;stroke-opacity:1"
       id="rect1179-2-4"
       width="0.44548899"
       height="3.6143973"
       x="129.47578"
       y="268.30246" />
    <path
       style="display:inline;opacity:1;fill:#646464;fill-opacity:1;stroke:#000000;stroke-width:0.465;stroke-linecap:butt;stroke-linejoin:miter;stroke-miterlimit:4;stroke-dasharray:none;stroke-opacity:1"
       d="m 154.28883,272.1428 h 0.90204 l 1.17634,4.39016 h -3.34792 z"
       id="path1177-9-3-0"
       inkscape:connector-curvature="0" />
    <rect
       style="display:inline;opacity:1;fill:#818181;fill-opacity:1;stroke:none;stroke-width:0.35151365;stroke-miterlimit:4;stroke-dasharray:none;stroke-opacity:1"
       id="rect1179-2-4-1"
       width="0.44548899"
       height="3.6143973"
       x="154.51924"
       y="268.30246" />
    <path
       style="fill:#000000;fill-opacity:1;stroke:#000000;stroke-width:0.26458332px;stroke-linecap:butt;stroke-linejoin:miter;stroke-opacity:1"
       d="m 202.51509,279.08947 c 0,0 -13.8422,-0.0528 -14.19919,-0.0616 -0.35699,-0.009 -0.81661,-0.0985 -1.19065,-0.75456 l -2.80027,-33.28432 c 5.23415,0.9277 12.67264,4.69222 12.96812,6.26715 z"
       id="path1381"
       inkscape:connector-curvature="0"
       sodipodi:nodetypes="czccsc" />
    <path
       style="fill:#646464;fill-opacity:1;stroke:#646464;stroke-width:0.26458332px;stroke-linecap:butt;stroke-linejoin:miter;stroke-opacity:1"
       d="m 196.18735,255.59711 h 1.93771 l 0.50948,2.78962 h -1.96276 z"
       id="path1383"
       inkscape:connector-curvature="0"
       sodipodi:nodetypes="ccccc" />
    <path
       style="fill:#646464;fill-opacity:1;stroke:#646464;stroke-width:0.26458332px;stroke-linecap:butt;stroke-linejoin:miter;stroke-opacity:1"
       d="m 195.32708,261.10954 h -8.97048 l 0.8977,13.03081 h 9.26042 l 1.34654,1.63002 -1.86626,-11.00856 h -1.32292 v 0.85045 l -2.14974,0.33073 -0.70317,-4.13187 2.13815,-0.3842 0.46772,2.07134 h 1.26954 z"
       id="path1385"
       inkscape:connector-curvature="0" />
    <path
       style="fill:#646464;fill-opacity:1;stroke:#646464;stroke-width:0.26458332px;stroke-linecap:butt;stroke-linejoin:miter;stroke-opacity:1"
       d="m 202.12826,277.0106 h -1.21957 v -1.55915 h -1.54734 l -2.5977,-14.34191 h 2.38872 z"
       id="path1387"
       inkscape:connector-curvature="0"
       sodipodi:nodetypes="ccccccc" />
    <path
       style="fill:#646464;fill-opacity:1;stroke:#000000;stroke-width:0.0677013;stroke-linecap:butt;stroke-linejoin:miter;stroke-miterlimit:4;stroke-dasharray:none;stroke-opacity:1"
       d="m 68.780449,235.31243 -0.84888,1.20566 -25.011257,-15.34139 0.664342,-0.99651 z"
       id="path1475"
       inkscape:connector-curvature="0"
       sodipodi:nodetypes="ccccc" />
    <rect
       style="opacity:1;fill:#646464;fill-opacity:1;stroke:#000000;stroke-width:0.065;stroke-linejoin:miter;stroke-miterlimit:4;stroke-dasharray:none;stroke-opacity:1"
       id="rect1500"
       width="6.8487792"
       height="1.5033907"
       x="40.177124"
       y="219.73288" />
    <rect
       style="display:inline;opacity:1;fill:#010101;fill-opacity:1;stroke:#000000;stroke-width:0.04814227;stroke-linejoin:miter;stroke-miterlimit:4;stroke-dasharray:none;stroke-opacity:1"
       id="rect1502"
       width="0.60109484"
       height="3.2353182"
       x="41.011566"
       y="218.9343" />
    <rect
       style="display:inline;opacity:1;fill:#010101;fill-opacity:1;stroke:#000000;stroke-width:0.04814227;stroke-linejoin:miter;stroke-miterlimit:4;stroke-dasharray:none;stroke-opacity:1"
       id="rect1502-4"
       width="0.6010949"
       height="3.2353182"
       x="45.616825"
       y="218.9343" />
    <path
       style="fill:#000000;fill-opacity:1;stroke:#646464;stroke-width:0.66500002;stroke-linecap:butt;stroke-linejoin:miter;stroke-miterlimit:4;stroke-dasharray:none;stroke-opacity:1"
       d="m 172.99337,259.0215 c 0,0 8.08149,0.0161 8.74734,0.0118 0.66586,-0.004 1.39844,0.73669 1.40316,1.1693 0.005,0.43262 0.0705,26.99422 0.0705,26.99422 l -0.2514,2.93186 c -0.11327,0.83478 -0.74242,1.14403 -1.19866,1.22466 -0.45625,0.0806 -8.28297,-0.0693 -9.22115,-0.0591 -0.93818,0.0102 -1.02779,-0.49474 -0.93282,-1.12754 0.095,-0.6328 0.4182,-3.19839 0.4182,-3.19839 0,0 -0.29133,-26.46945 -0.21224,-26.75408 0.0791,-0.28462 0.26875,-1.05489 1.17704,-1.19279 z"
       id="path1554"
       inkscape:connector-curvature="0"
       sodipodi:nodetypes="czzcczzzczc" />
    <path
       style="fill:#505050;fill-opacity:1;stroke:#505050;stroke-width:0.26458332px;stroke-linecap:butt;stroke-linejoin:miter;stroke-opacity:1"
       d="m 173.90701,262.82468 h 7.13431 v 14.62296 h -1.01582 v -0.85045 h -1.77176 v -1.27567 h 1.25205 l -1.98438,-4.74832 v -3.80339 h -1.03943 v 6.85082 h -2.57497 z"
       id="path1556"
       inkscape:connector-curvature="0" />
    <path
       style="fill:#505050;fill-opacity:1;stroke:#505050;stroke-width:0.26458332px;stroke-linecap:butt;stroke-linejoin:miter;stroke-opacity:1"
       d="m 177.25298,279.26716 h 2.87314 l 0.99391,0.99391 v 1.16095 h -3.09865 z"
       id="path1558"
       inkscape:connector-curvature="0" />
    <rect
       style="opacity:1;fill:#505050;fill-opacity:1;stroke:#505050;stroke-width:0.66499996;stroke-linejoin:miter;stroke-miterlimit:4;stroke-dasharray:none;stroke-opacity:1"
       id="rect1560"
       width="0.51782078"
       height="2.2216747"
       x="180.35999"
       y="283.87756" />
    <rect
       style="opacity:1;fill:#505050;fill-opacity:1;stroke:#505050;stroke-width:0.54291171;stroke-linejoin:miter;stroke-miterlimit:4;stroke-dasharray:none;stroke-opacity:1"
       id="rect1562"
       width="6.7652588"
       height="0.055668756"
       x="174.04576"
       y="288.64944" />
    <text
       xml:space="preserve"
       style="font-style:normal;font-variant:normal;font-weight:bold;font-stretch:normal;font-size:1.76388919px;line-height:1.25;font-family:Carlito;-inkscape-font-specification:'Carlito Bold';letter-spacing:0px;word-spacing:0px;fill:#000000;fill-opacity:1;stroke:none;stroke-width:0.26458332"
       x="176.11708"
       y="286.76743"
       id="text1566"><tspan
         sodipodi:role="line"
         id="tspan1564"
         x="176.11708"
         y="286.76743"
         style="font-style:normal;font-variant:normal;font-weight:bold;font-stretch:normal;font-size:1.76388919px;font-family:Carlito;-inkscape-font-specification:'Carlito Bold';fill:#fdc400;fill-opacity:1;stroke:none;stroke-width:0.26458332;stroke-opacity:1">2608</tspan></text>
    <path
       style="fill:none;stroke:#000000;stroke-width:0.26458332px;stroke-linecap:butt;stroke-linejoin:miter;stroke-opacity:1"
       d="m 194.17448,278.76603 v 11.22533"
       id="path1568"
       inkscape:connector-curvature="0" />
    <path
       style="fill:none;stroke:#000000;stroke-width:0.26458332px;stroke-linecap:butt;stroke-linejoin:miter;stroke-opacity:1"
       d="M 205.07955,285.11368 H 194.20789"
       id="path1570"
       inkscape:connector-curvature="0"
       sodipodi:nodetypes="cc" />
    <rect
       style="opacity:1;fill:#fffdf5;fill-opacity:1;stroke:#fffbec;stroke-width:0.66499996;stroke-linejoin:miter;stroke-miterlimit:4;stroke-dasharray:none;stroke-opacity:1"
       id="rect1572"
       width="1.6704401"
       height="0.10857733"
       x="200.95645"
       y="280.70374"
       ry="0.025056519" />
    <circle
       style="opacity:1;fill:#fffdf5;fill-opacity:1;stroke:#fffbec;stroke-width:0.66499996;stroke-linejoin:miter;stroke-miterlimit:4;stroke-dasharray:none;stroke-opacity:1"
       id="path1574"
       cx="201.58286"
       cy="282.78345"
       r="0.39255211" />
    <rect
       style="display:inline;opacity:1;fill:#fffdf5;fill-opacity:1;stroke:#fffbec;stroke-width:0.41762945;stroke-linejoin:miter;stroke-miterlimit:4;stroke-dasharray:none;stroke-opacity:1"
       id="rect1572-1"
       width="1.1243541"
       height="0.063621797"
       x="202.63683"
       y="282.06256"
       ry="0.014682077" />
    <ellipse
       style="opacity:1;fill:#fffdf5;fill-opacity:1;stroke:#fb9400;stroke-width:0.66499996;stroke-linejoin:miter;stroke-miterlimit:4;stroke-dasharray:none;stroke-opacity:1"
       id="path1597"
       cx="187.83899"
       cy="281.71759"
       rx="1.4823754"
       ry="0.18308221" />
    <ellipse
       style="opacity:1;fill:#6ff9ff;fill-opacity:1;stroke:none;stroke-width:0.66499996;stroke-linejoin:miter;stroke-miterlimit:4;stroke-dasharray:none;stroke-opacity:1"
       id="path1599"
       ry="0.43013692"
       rx="0.81016076"
       cy="252.07668"
       cx="197.29819" />
    <path
       style="fill:none;stroke:#000000;stroke-width:0.16500001;stroke-linecap:butt;stroke-linejoin:miter;stroke-miterlimit:4;stroke-dasharray:none;stroke-opacity:1"
       d="m 171.80736,256.74971 h 1.67044 c -0.0936,-0.93402 -0.40268,-2.6864 -0.83522,-2.73952 -0.43253,-0.0531 -0.78049,1.63536 -0.83522,2.73952 z"
       id="path1601"
       inkscape:connector-curvature="0"
       sodipodi:nodetypes="cczc" />
    <path
       style="display:inline;opacity:1;fill:none;stroke:#000000;stroke-width:0.16500001;stroke-linecap:butt;stroke-linejoin:miter;stroke-miterlimit:4;stroke-dasharray:none;stroke-opacity:1"
       d="m 165.45686,254.92889 v 1.67044 c 0.93402,-0.0936 2.6864,-0.40268 2.73951,-0.83522 0.0531,-0.43253 -1.63535,-0.78049 -2.73951,-0.83522 z"
       id="path1601-5"
       inkscape:connector-curvature="0"
       sodipodi:nodetypes="cczc" />
    <ellipse
       style="display:inline;opacity:1;fill:#fffdf5;fill-opacity:1;stroke:#fb9400;stroke-width:0.54594767;stroke-linejoin:miter;stroke-miterlimit:4;stroke-dasharray:none;stroke-opacity:1"
       id="path1597-6"
       cx="262.09088"
       cy="-167.14093"
       rx="1.7131721"
       ry="0.10677317"
       transform="rotate(90)" />
    <rect
       style="opacity:1;fill:none;fill-opacity:1;stroke:#161100;stroke-width:0.16500001;stroke-linejoin:miter;stroke-miterlimit:4;stroke-dasharray:none;stroke-opacity:1"
       id="rect1648"
       width="2.9529331"
       height="1.4055964"
       x="165.16634"
       y="277.86105"
       ry="0.27310181" />
    <rect
       style="display:inline;opacity:1;fill:none;fill-opacity:1;stroke:#161100;stroke-width:0.16500001;stroke-linejoin:miter;stroke-miterlimit:4;stroke-dasharray:none;stroke-opacity:1"
       id="rect1648-6"
       width="2.2678499"
       height="1.3583479"
       x="154.05145"
       y="277.97327"
       ry="0.27310181" />
    <rect
       style="display:inline;opacity:1;fill:none;fill-opacity:1;stroke:#161100;stroke-width:0.16500001;stroke-linejoin:miter;stroke-miterlimit:4;stroke-dasharray:none;stroke-opacity:1"
       id="rect1648-2"
       width="1.4882798"
       height="1.4528427"
       x="146.37381"
       y="284.02087"
       ry="0.27310181" />
    <rect
       style="display:inline;opacity:1;fill:none;fill-opacity:1;stroke:#161100;stroke-width:0.16500001;stroke-linejoin:miter;stroke-miterlimit:4;stroke-dasharray:none;stroke-opacity:1"
       id="rect1648-25"
       width="2.1733584"
       height="1.3819704"
       x="59.888142"
       y="277.97327"
       ry="0.27310181" />
    <rect
       style="display:inline;opacity:1;fill:none;fill-opacity:1;stroke:#161100;stroke-width:0.16500001;stroke-linejoin:miter;stroke-miterlimit:4;stroke-dasharray:none;stroke-opacity:1"
       id="rect1648-1"
       width="1.464654"
       height="1.4764633"
       x="37.871029"
       y="284.04449"
       ry="0.27310181" />
    <path
       style="fill:none;stroke:#000000;stroke-width:0.26458332px;stroke-linecap:butt;stroke-linejoin:miter;stroke-opacity:1"
       d="M 185.15413,251.82192 H 15.270944"
       id="path1683"
       inkscape:connector-curvature="0"
       sodipodi:nodetypes="cc" />
    <rect
       style="opacity:1;fill:#646464;fill-opacity:1;stroke:#646464;stroke-width:0.16500001;stroke-linejoin:miter;stroke-miterlimit:4;stroke-dasharray:none;stroke-opacity:1"
       id="rect1720"
       width="0.53598911"
       height="39.307602"
       x="14.342007"
       y="253.17448"
       ry="0.21851912" />
    <path
       style="display:inline;opacity:1;fill:#000000;fill-opacity:1;stroke:#000000;stroke-width:0.26458332px;stroke-linecap:butt;stroke-linejoin:miter;stroke-opacity:1"
       d="m 13.100013,251.86928 0.767765,1.26386 v 39.31274 l -0.706963,1.38646 -0.818513,-1.40316 v -39.31376 z"
       id="path1685-9"
       inkscape:connector-curvature="0" />
    <rect
       style="display:inline;opacity:1;fill:#646464;fill-opacity:1;stroke:#646464;stroke-width:0.16500001;stroke-linejoin:miter;stroke-miterlimit:4;stroke-dasharray:none;stroke-opacity:1"
       id="rect1720-0"
       width="0.53598911"
       height="39.307602"
       x="12.816529"
       y="253.15677"
       ry="0.21851912" />
    <path
       style="display:inline;opacity:1;fill:#000000;fill-opacity:1;stroke:#000000;stroke-width:0.26458332px;stroke-linecap:butt;stroke-linejoin:miter;stroke-opacity:1"
       d="m 11.574538,251.85156 0.767764,1.26386 v 39.31274 l -0.706963,1.38646 -0.818513,-1.40316 V 253.0977 Z"
       id="path1685-9-7"
       inkscape:connector-curvature="0" />
    <rect
       style="display:inline;opacity:1;fill:#646464;fill-opacity:1;stroke:#646464;stroke-width:0.16500001;stroke-linejoin:miter;stroke-miterlimit:4;stroke-dasharray:none;stroke-opacity:1"
       id="rect1720-0-0"
       width="0.53598911"
       height="39.307602"
       x="11.291055"
       y="253.13905"
       ry="0.21851912" />
    <path
       style="display:inline;opacity:1;fill:#000000;fill-opacity:1;stroke:#000000;stroke-width:0.26458332px;stroke-linecap:butt;stroke-linejoin:miter;stroke-opacity:1"
       d="m 10.049061,251.83385 0.767764,1.26385 v 39.31275 l -0.706963,1.38645 -0.8185115,-1.40316 v -39.31375 z"
       id="path1685-9-4"
       inkscape:connector-curvature="0" />
    <rect
       style="display:inline;opacity:1;fill:#646464;fill-opacity:1;stroke:#646464;stroke-width:0.16500001;stroke-linejoin:miter;stroke-miterlimit:4;stroke-dasharray:none;stroke-opacity:1"
       id="rect1720-0-8"
       width="0.53598911"
       height="39.307602"
       x="9.7655783"
       y="253.12134"
       ry="0.21851912" />
    <path
       style="display:inline;opacity:1;fill:#000000;fill-opacity:1;stroke:#000000;stroke-width:0.26458332px;stroke-linecap:butt;stroke-linejoin:miter;stroke-opacity:1"
       d="m 8.5235865,251.81613 0.767764,1.26386 v 39.31274 l -0.706963,1.38646 -0.818513,-1.40317 v -39.31375 z"
       id="path1685-9-43"
       inkscape:connector-curvature="0" />
    <rect
       style="display:inline;opacity:1;fill:#646464;fill-opacity:1;stroke:#646464;stroke-width:0.16500001;stroke-linejoin:miter;stroke-miterlimit:4;stroke-dasharray:none;stroke-opacity:1"
       id="rect1720-0-5"
       width="0.53598911"
       height="39.307602"
       x="8.2401028"
       y="253.10362"
       ry="0.21851912" />
    <path
       style="display:inline;opacity:1;fill:#000000;fill-opacity:1;stroke:#000000;stroke-width:0.26458332px;stroke-linecap:butt;stroke-linejoin:miter;stroke-opacity:1"
       d="m 6.9981101,251.79841 0.7677644,1.26386 v 39.31274 l -0.7069634,1.38646 -0.818513,-1.40316 v -39.31376 z"
       id="path1685-9-2"
       inkscape:connector-curvature="0" />
    <rect
       style="display:inline;opacity:1;fill:#646464;fill-opacity:1;stroke:#646464;stroke-width:0.16500001;stroke-linejoin:miter;stroke-miterlimit:4;stroke-dasharray:none;stroke-opacity:1"
       id="rect1720-0-03"
       width="0.53598911"
       height="39.307602"
       x="6.7146268"
       y="253.08589"
       ry="0.21851912" />
    <path
       style="display:inline;opacity:1;fill:#000000;fill-opacity:1;stroke:#000000;stroke-width:0.26458332px;stroke-linecap:butt;stroke-linejoin:miter;stroke-opacity:1"
       d="m 5.4726341,251.7807 0.767764,1.26385 v 39.31275 l -0.706963,1.38645 -0.818513,-1.40316 v -39.31375 z"
       id="path1685-9-26"
       inkscape:connector-curvature="0" />
    <rect
       style="display:inline;opacity:1;fill:#646464;fill-opacity:1;stroke:#646464;stroke-width:0.16500001;stroke-linejoin:miter;stroke-miterlimit:4;stroke-dasharray:none;stroke-opacity:1"
       id="rect1720-0-51"
       width="0.53598911"
       height="39.307602"
       x="5.1891513"
       y="253.06818"
       ry="0.21851912" />
    <path
       style="display:inline;opacity:1;fill:#000000;fill-opacity:1;stroke:#000000;stroke-width:0.26458332px;stroke-linecap:butt;stroke-linejoin:miter;stroke-opacity:1"
       d="m 3.9471581,251.76298 0.767764,1.26386 v 39.31274 l -0.706963,1.38646 -0.818513,-1.40317 v -39.31375 z"
       id="path1685-9-8"
       inkscape:connector-curvature="0" />
    <rect
       style="display:inline;opacity:1;fill:#646464;fill-opacity:1;stroke:#646464;stroke-width:0.16500001;stroke-linejoin:miter;stroke-miterlimit:4;stroke-dasharray:none;stroke-opacity:1"
       id="rect1720-0-54"
       width="0.53598911"
       height="39.307602"
       x="3.6636748"
       y="253.05046"
       ry="0.21851912" />
    <path
       style="display:inline;opacity:1;fill:#000000;fill-opacity:1;stroke:#000000;stroke-width:0.26458332px;stroke-linecap:butt;stroke-linejoin:miter;stroke-opacity:1"
       d="m 2.4216821,251.74526 0.767764,1.26386 v 39.31274 l -0.706963,1.38646 -0.818513,-1.40316 V 252.9914 Z"
       id="path1685-9-6"
       inkscape:connector-curvature="0" />
    <rect
       style="display:inline;opacity:1;fill:#646464;fill-opacity:1;stroke:#646464;stroke-width:0.16500001;stroke-linejoin:miter;stroke-miterlimit:4;stroke-dasharray:none;stroke-opacity:1"
       id="rect1720-0-09"
       width="0.53598911"
       height="39.307602"
       x="2.1381998"
       y="253.03275"
       ry="0.21851912" />
    <path
       style="display:inline;opacity:1;fill:#000000;fill-opacity:1;stroke:#000000;stroke-width:0.26458332px;stroke-linecap:butt;stroke-linejoin:miter;stroke-opacity:1"
       d="m 0.8962061,251.72754 0.767764,1.26386 v 39.31274 l -0.706963,1.38646 -0.8185129,-1.40316 v -39.31376 z"
       id="path1685-9-5"
       inkscape:connector-curvature="0" />
    <rect
       style="display:inline;opacity:1;fill:#646464;fill-opacity:1;stroke:#646464;stroke-width:0.16500001;stroke-linejoin:miter;stroke-miterlimit:4;stroke-dasharray:none;stroke-opacity:1"
       id="rect1720-0-4"
       width="0.53598911"
       height="39.307602"
       x="0.61272365"
       y="253.01503"
       ry="0.21851912" />
    <path
       style="fill:#000000;fill-opacity:0.23474181;stroke:none;stroke-width:0.26458332px;stroke-linecap:butt;stroke-linejoin:miter;stroke-opacity:1"
       d="m 205.67067,288.37672 c 0.0365,0.5395 -0.137,0.94659 -0.61201,1.16348 l -46.36994,0.1754 c -1.51976,-0.66361 -4.50178,-1.07301 -4.21435,-2.17351 l 39.74887,-0.22343 c 4.27136,0.21208 10.43757,-0.16066 11.44743,1.05806 z"
       id="path1973"
       inkscape:connector-curvature="0"
       sodipodi:nodetypes="cccccc" />
    <path
       style="fill:#000000;fill-opacity:0.23529412;stroke:none;stroke-width:0.26458332px;stroke-linecap:butt;stroke-linejoin:miter;stroke-opacity:1"
       d="m 111.92712,291.39477 12.40544,-0.0119 c 0.71269,-0.69292 1.09564,-1.59861 1.75958,-2.0991 0.65751,-0.49563 1.50881,-0.72298 2.51768,-0.74569 0.79028,0.10811 1.12274,-0.33314 1.28622,-0.9772 l -17.96892,-0.0145 z"
       id="path1987"
       inkscape:connector-curvature="0" />
    <path
       style="fill:#000000;fill-opacity:0.23529412;stroke:none;stroke-width:0.26458332px;stroke-linecap:butt;stroke-linejoin:miter;stroke-opacity:1"
       d="m 88.269129,287.52679 -33.406746,-0.0274 c 0.874016,2.80231 3.807102,2.62994 5.710764,3.94498 l 27.695982,-0.0269 z"
       id="path1985"
       inkscape:connector-curvature="0" />
    <path
       style="fill:#000000;fill-opacity:0.23529412;stroke:none;stroke-width:0.26458332px;stroke-linecap:butt;stroke-linejoin:miter;stroke-opacity:1"
       d="m 30.296588,287.46197 c 0.01,0.72357 -0.253113,1.15825 -1.059957,1.01785 -1.249848,-0.0636 -2.173303,0.28048 -2.887975,0.86225 -0.556417,0.73439 -0.200998,0.16729 -1.706576,2.13597 h -9.360698 l -0.0021,-4.06128 z"
       id="path1989"
       inkscape:connector-curvature="0"
       sodipodi:nodetypes="ccccccc" />
  </g>
</svg>
